<svg width="107" height="72" viewBox="0 0 107 72" fill="none" xmlns="http://www.w3.org/2000/svg">
<g clip-path="url(#clip0_128_9199)">
<path d="M53.1345 36.6181L19.9745 43.9797C17.2895 44.5757 15.595 47.2404 16.1897 49.9314L20.2021 68.0853C20.7969 70.7763 23.4557 72.4746 26.1408 71.8785L59.3008 64.5169C61.9859 63.9208 63.6804 61.2561 63.0856 58.5651L59.0732 40.4113C58.4784 37.7203 55.8196 36.022 53.1345 36.6181Z" fill="#CCCCCC"/>
<path d="M33.791 62.8092C29.9943 63.7385 26.1659 61.4091 25.2362 57.6064C24.3089 53.8012 26.6332 49.9644 30.4275 49.0326C30.5273 49.0082 30.6295 48.9863 30.7317 48.9643C34.565 48.2009 38.2887 50.6986 39.0505 54.5403C39.7879 58.2625 37.4685 61.9067 33.791 62.8092Z" fill="white"/>
<path d="M84.0214 12.0183L50.8614 19.3798C48.1763 19.9759 46.4818 22.6406 47.0766 25.3316L51.089 43.4855C51.6838 46.1765 54.3426 47.8748 57.0276 47.2787L90.1877 39.9171C92.8727 39.321 94.5672 36.6563 93.9725 33.9653L89.96 15.8114C89.3653 13.1204 86.7064 11.4222 84.0214 12.0183Z" fill="#B2B2B2"/>
<path d="M61.3268 23.7674L55.4602 32.9929L64.6653 38.8724L70.5319 29.6469L61.3268 23.7674Z" fill="white"/>
<path d="M98.2863 41.2279L69.5769 47.6014C67.2528 48.1173 65.786 50.4239 66.3008 52.7532L69.7748 68.4708C70.2896 70.8001 72.5911 72.2701 74.9152 71.7542L103.625 65.3807C105.949 64.8647 107.416 62.5581 106.901 60.2288L103.427 44.5112C102.912 42.1819 100.61 40.7119 98.2863 41.2279Z" fill="#CCCCCC"/>
<path d="M83.8952 51.9472L74.11 54.1195L76.2775 63.9264L86.0628 61.754L83.8952 51.9472Z" fill="white"/>
<path d="M42.7842 0.134016L4.5058 8.63186C1.40604 9.32001 -0.550186 12.3963 0.136446 15.5029L4.76787 36.4574C5.4545 39.564 8.52398 41.5245 11.6237 40.8364L49.9021 32.3385C53.0019 31.6504 54.9581 28.5741 54.2715 25.4675L49.64 4.51303C48.9534 1.40642 45.8839 -0.554134 42.7842 0.134016Z" fill="#CCCCCC"/>
<path d="M27.8987 27.0238L11.9573 30.563L17.1145 16.0352L27.8987 27.0238Z" fill="white"/>
</g>
<defs>
<clipPath id="clip0_128_9199">
<rect width="107" height="72" fill="white"/>
</clipPath>
</defs>
</svg>
