<svg id="Assets" xmlns="http://www.w3.org/2000/svg" viewBox="0 0 800 800"><defs><style>.cls-1{fill:#8bd2f1;}.cls-2{fill:#a6dff8;}.cls-3{fill:#00a6e5;}.cls-4{fill:#00be3b;}.cls-5{fill:#00aa2d;}.cls-6{fill:#00901b;}.cls-7{fill:#a0de9c;}</style></defs><g id="Elipse_1080" data-name="Elipse 1080"><circle class="cls-1" cx="398.07" cy="457.06" r="309.02" transform="translate(-206.6 415.35) rotate(-45)"/></g><g id="Elipse_1080_copia_2" data-name="Elipse 1080 copia 2"><path class="cls-2" d="M425.59,181.81a300.34,300.34,0,0,1,156,43.42,300.42,300.42,0,0,0-178-58.1c-166.68,0-301.8,135.13-301.8,301.83,0,109.59,58.4,205.54,145.77,258.42A301.4,301.4,0,0,1,123.79,483.65C123.79,317,258.91,181.81,425.59,181.81Z"/></g><g id="Elipse_1480" data-name="Elipse 1480"><path class="cls-3" d="M423.78,550.17c-9-.9-21.52,4.73-33.23,4.17-11.73-.11-21.88-5.73-29.62-4.66-7.65.36-12.89,7.42-12.75,16.26.35,16.93,18.38,36,42.55,37.83,24.41,1.11,48-20.95,47.64-37.83C438.44,557.08,432.87,550.36,423.78,550.17Z"/></g><g id="Forma_1478" data-name="Forma 1478"><path class="cls-4" d="M628.64,240.93c-107-111.25-261.92-103-266.34-96.48-11.14,16.43.13,18.08,11.61,24.16s15,3,18.15,20.18,5.73,23.6,25,18.09,39,.29,23.14,24-17.53,30.77,8.09,43c33.29,15.95,42.79-13.76,68.21-9.26,15.56,2.75,33,19.94,49,25.74s25.78-6.33,20.47-16.26,4-27.08,13.49-23.32c14.86,5.89,20.77,2.34,26.58-1.69S628.64,240.93,628.64,240.93Z"/></g><g id="Forma_1478_copia_2" data-name="Forma 1478 copia 2"><path class="cls-5" d="M575.77,284.6c-16-5.8-33.42-23-49-25.74-25.42-4.49-34.92,25.22-68.21,9.27-25.62-12.27-23.94-19.37-8.09-43s-3.87-29.48-23.14-24-21.83-.93-25-18.08-6.67-14.1-18.15-20.18c-10.61-5.62-21-7.46-13.76-20.68-4.76.63-7.6,1.46-8.15,2.27-11.14,16.43.13,18.08,11.61,24.16s15,3,18.15,20.18,5.73,23.6,25,18.09,39,.29,23.14,24-17.53,30.77,8.09,43c33.29,15.95,42.79-13.76,68.21-9.26,15.56,2.75,33,19.94,49,25.74,9.45,3.42,16.72.6,20-4.34A22.14,22.14,0,0,1,575.77,284.6Zm34-39.57c-4.36-1.74-8.69,1-11.58,5.37a6.68,6.68,0,0,1,1.28.38c14.86,5.89,20.77,2.34,26.58-1.69a11.14,11.14,0,0,0,1.74-1.46C623.49,248.66,618,248.3,609.73,245Z"/></g><g id="Forma_1082" data-name="Forma 1082"><path class="cls-3" d="M626.33,281.77c-14.88-18.1-37.63-27.58-21.76,15.93,0,0,85.31,223.51-87.94,394.81-50.56,50-10.66,30,7.72,21.18C577.26,688.3,644,647.29,681.6,521.18,707.16,435.43,641.21,299.88,626.33,281.77Z"/></g><g id="Forma_1474" data-name="Forma 1474"><path class="cls-4" d="M683.38,324.17s-1.68-1.61-6.17.64c-10.38,5.22-1.59,32.65-42.16,27s-56.26-5-56.5,12.6,22.45,8.17,51.16,13.34S659,401.18,653.37,411.9s-37.44.79-45.75.67c-15.58-.22-35.58,22-55.88,12.38-27.74-13.15-49.15-22.19-50.05,4.24-.82,24.3,23.05,26.27,34.16,39.94s4.19,33.51-14.69,61.75,14.9,50.76,37.94,30.56,29.26-37.17,47.76-9.41-15,41.65-71.1,50.71c0,0-51.72-3.1-65.38,60.63s-35,45.88-49.1,67.49-14.49,36.61-.38,41.74S515,776,584.68,720.49s83.41-81.69,88.72-95.93-25.64-29.85-19.31-52.95c4.31-15.73,10.45-14.87,15.79-19s8.48-12.28,3-25.88-31-23.09-26.75-42.65,32.4-28.88,46-35.15,22.79-8.28,24-14.34S710.52,364.26,683.38,324.17Z"/></g><g id="Forma_1474_copia_4" data-name="Forma 1474 copia 4"><path class="cls-5" d="M596.46,540c3.1,2.25,6.47,6.12,10.4,12,18.5,27.76-15,41.65-71.1,50.71,0,0-51.72-3.1-65.38,60.63s-35,45.88-49.1,67.49-14.49,36.61-.38,41.74a35.22,35.22,0,0,0,8.06,1.49c-12.55-5.64-11.67-20.31,1.89-41.12,14.09-21.61,35.45-3.76,49.1-67.49s65.38-60.62,65.38-60.62c56.1-9.06,89.6-23,71.1-50.72C608.19,541.79,602.39,538.3,596.46,540Zm-60.61-70.88c11.11,13.68,4.19,33.51-14.69,61.75-13.63,20.38.18,37.78,17.59,38.29-12.17-5.28-19-19.76-8-36.18,18.88-28.24,25.8-48.07,14.69-61.75s-35-15.64-34.16-39.94c.46-13.5,6.28-17.75,15.56-16.91-14.73-4.69-24.53-2.89-25.13,14.8C500.87,453.49,524.74,455.46,535.85,469.13Zm103.43-89.29q-1.28-.24-2.52-.42c21.72,6.69,21.75,22.72,16.61,32.48-5.66,10.71-37.44.79-45.75.67-13-.18-29,15.14-45.65,14.79,20.08,8.83,39.81-12.89,55.22-12.67,8.31.11,40.09,10,45.74-.68S668,385,639.28,379.84Zm44.1-55.67s-1.68-1.61-6.17.64c-10.38,5.22-1.59,32.65-42.16,27s-56.26-5-56.5,12.6c-.11,8.58,5.24,10.73,14.11,11.28-3-1.63-4.6-4.4-4.54-9.17.24-17.57,15.93-18.28,56.5-12.6,39,5.46,32.4-19.63,41-26.24C684.9,326.47,684.15,325.31,683.38,324.17Z"/></g><g id="Forma_1474_copia" data-name="Forma 1474 copia"><path class="cls-6" d="M646.1,484.13c3.71-17,25.37-26.23,39.9-32.48-3.78-35.37-14.63-71.83-26.25-102-5.14,2.64-12.79,3.83-24.7,2.16-6.21-.87-11.83-1.59-16.91-2.12,1.54,8.23,3,17.28,4.19,27,2.4.26,4.87.6,7.38,1.05,28.71,5.18,29.31,23.46,23.66,34.18-3.43,6.49-16.45,5.41-28,3.52,1.31,40.06-2.85,87-19.22,135.52.25.35.49.72.74,1.09,11,16.51,3.61,28.12-16,36.72-16.66,35.21-40.56,70.47-74.22,103.76-50.56,50-10.66,30,7.72,21.18,42.14-20.23,93.08-50.36,131.06-125.52a25,25,0,0,1-1.32-16.56c4.31-15.73,10.45-14.87,15.79-19a14.15,14.15,0,0,0,1.68-1.52q2.13-5.67,4.17-11.61a34.86,34.86,0,0,0-2.88-12.75C667.33,513.18,641.83,503.69,646.1,484.13Z"/></g><g id="Forma_1471" data-name="Forma 1471"><path class="cls-4" d="M356.6,703.83c14.11-9.87,58.58-21.56,48.86-42.61s-38.35,16.45-81.61-14.42-18.09-57.43-26.64-73.08-27-39.06-76.74-24-63.09-59.56-8.61-40.06,45.56-19,30.1-20.57-29.52,1.69-46.56-11.42-43.06,13-61.25-1.27-19.25-28.89.68-26.65,19.07-6.19,25.39-14.85,21.32,4.92,30.27-1.43,6.81-12,.11-17.24-36.15-26.28-46.1-3.59c-12.13,27.64-29-4.53-22.7-19.32S101,350.14,100,365.23c0,0-51.63,98.12,29.42,267.24a9.38,9.38,0,0,0,8,2.27c5.19-.77,13-1.34,20.6-11.51s34-7,45.1,27.16,127.14,127.89,153.39,87.26C369.68,717.36,342.5,713.69,356.6,703.83Z"/></g><g id="Forma_1471_copia_2" data-name="Forma 1471 copia 2"><path class="cls-5" d="M189.11,482.34c17,13.11,31.1,9.82,46.56,11.42,8.43.88,14.92,12.72,10.24,20.14,14.28-5,6.72-23.72-3.95-24.83-15.46-1.6-29.52,1.69-46.56-11.42s-43.06,13-61.25-1.27c-10.53-8.27-15.32-16.64-13.62-21.8-11.13,2.3-7.93,14.51,7.33,26.49C146.06,495.36,172.08,469.23,189.11,482.34ZM115.51,398c-5.75,13.46,7.73,41.32,19.34,25.37-9.53,1.75-17.77-19-13-30.06,6.31-14.8-20.84-43.16-21.77-28.07,0,0-.18.36-.51,1C107.4,369.86,120,387.4,115.51,398Zm32.56,51.11c6.16-2.07,7.52-7.07,10.93-12.43a6.93,6.93,0,0,0-5.07,2.9C151.43,443,150.06,446.39,148.07,449.1Zm36.24-28.2c5.45,4.27,7.88,8.79,3.79,13.74a9,9,0,0,0,2.39-1.19c8.95-6.36,6.81-12,.11-17.24-6.17-4.84-31.65-23.06-43.4-8.17C160.05,403.14,179.09,416.8,184.31,420.9ZM405.46,661.22c-9.71-21.05-38.35,16.45-81.61-14.42s-18.09-57.43-26.64-73.08-27-39.06-76.74-24c-34.69,10.49-51.68-22.61-40.31-37-22,9.2-5.42,53.62,34,41.69,49.74-15,68.19,8.37,76.74,24s-16.62,42.2,26.64,73.08,71.9-6.63,81.62,14.42c3.33,7.23.28,13.35-5.73,18.68C403.27,678.23,409.82,670.67,405.46,661.22ZM151.79,627.93a35.69,35.69,0,0,1-3.28,3.8,28.22,28.22,0,0,0,9.14-7.93A12.35,12.35,0,0,0,151.79,627.93ZM364,699.49s-1.1-.5-11.09,1.89c-24.15,5.78,10.44,20.68-2.67,41a22.39,22.39,0,0,1-2.19,2.85,20.64,20.64,0,0,0,8.48-7.55c12-18.57-9.54-22.84-2.75-31.3C356.82,703.24,364,699.49,364,699.49Z"/></g><g id="Forma_1083" data-name="Forma 1083"><path class="cls-4" d="M261.94,181.83c-7.8-4.68-12-1.21-12-1.21s-57.09,21-110.7,101.15c0,0-9.11,9.74.84,17.69s27.49,10.79,47.22-12S246.73,269.5,257,256s-16.94-14.16-13.56-26.24,20-16.89,22.58-25.83S274.3,189.23,261.94,181.83Z"/></g><g id="Forma_1083_copia_2" data-name="Forma 1083 copia 2"><path class="cls-5" d="M261.94,181.83c-7.46-4.64-11.75-1.43-12-1.22a7,7,0,0,1,3.68-1.2c8.54,6.53,4.92,12.73,1.23,20.21-3.86,7.83-19.2,13.75-22.58,25.83s23.83,12.78,13.57,26.25-50,8.62-69.74,31.42C163.2,298,151.24,302,141.73,300.7c10.18,6.93,26.87,8.31,45.53-13.26C207,264.64,246.73,269.5,257,256s-16.94-14.16-13.56-26.24S261.08,214.63,266,204C269.91,195.5,272.17,188.18,261.94,181.83Z"/></g><g id="Elipse_1479" data-name="Elipse 1479"><path class="cls-7" d="M562.57,454c-2.86,3.37-1,13.27-.05,20.41.57,3.87,0,7-.13,9.19s.39,3.63,1.84,4.36c3.3,1.64,7.25-4.47,7.29-16C571.89,458.58,566.19,449.28,562.57,454Z"/></g><g id="Rectángulo_1468_copia_4" data-name="Rectángulo 1468 copia 4"><path class="cls-7" d="M500.89,658.06c-2-1.37-4.49-.53-5.7,1.93-6.23,12-8.49,25.68-13.76,37.25a69.92,69.92,0,0,1-22.24,28.45c-1.8,1.51-.95,4.16,1.58,5.64a5.9,5.9,0,0,0,7-.53c8.62-7.37,17.4-16.42,22.49-28,5.54-11.36,7.4-25.22,12.53-37.64A6.34,6.34,0,0,0,500.89,658.06Z"/></g><g id="Rectángulo_1468_copia_2" data-name="Rectángulo 1468 copia 2"><path class="cls-7" d="M205.49,217.7a248.72,248.72,0,0,0-29.25,28.42,257.86,257.86,0,0,0-22.05,29.28,5.59,5.59,0,0,0,1,6.87c1.95,1.88,4.94,1.84,6.35-.08A316.79,316.79,0,0,1,212.08,225a4.72,4.72,0,0,0,.41-6.79A5.14,5.14,0,0,0,205.49,217.7Zm27-13.67a5.27,5.27,0,0,0-7-1.11c-3,2.15-6.06,4.27-9.14,6.5a4.17,4.17,0,0,0-.73,6.33,5.47,5.47,0,0,0,7.12.63c3.05-2.27,6.13-4.36,9.2-6.31C234.07,208.72,234.29,206.13,232.45,204Z"/></g><g id="Rectángulo_1468_copia_5" data-name="Rectángulo 1468 copia 5"><path class="cls-7" d="M558.08,200.43a297.31,297.31,0,0,0-36.9-20.53,285.22,285.22,0,0,0-44.09-16.31,5.91,5.91,0,0,0-7.16,3.74,5.39,5.39,0,0,0,3.59,6.94,366.16,366.16,0,0,1,80,36.7c2.37,1.36,5.55,0,6.74-2.86A6.43,6.43,0,0,0,558.08,200.43Z"/></g><g id="Rectángulo_1468_copia_3" data-name="Rectángulo 1468 copia 3"><path class="cls-7" d="M140.33,589.82a364.85,364.85,0,0,1-27.54-83.54,5.43,5.43,0,0,0-6.52-4.35,5.89,5.89,0,0,0-4.53,6.69A284.43,284.43,0,0,0,113,554.24a295.42,295.42,0,0,0,16.3,39,6.44,6.44,0,0,0,7.41,3C139.72,595.34,141.42,592.34,140.33,589.82Zm-34.67-92.41a6.3,6.3,0,0,0,4.76-6.72c-.48-4.35-.77-8.63-.93-12.83-.09-2.9-2.54-4.63-5.7-4s-5.46,3.36-5.15,6.29c.4,4.22.73,8.51,1.16,12.87A4.78,4.78,0,0,0,105.66,497.41Z"/></g></svg>