<svg id="Assets" xmlns="http://www.w3.org/2000/svg" viewBox="0 0 800 800"><defs><style>.cls-1{fill:#729cb5;}.cls-2{fill:#bcd4e3;}.cls-3{fill:#3a5e78;}.cls-4{fill:#527e98;}.cls-5{fill:#e4eff6;}.cls-6{fill:#88b0c7;}.cls-7{fill:none;}.cls-8{fill:#fff;}</style></defs><g id="Forma_1704" data-name="Forma 1704"><path class="cls-1" d="M752.71,604.25S629.32,734.12,402.89,734.12c0,0-262.66-6-351.61-126.35,0,0-41.94,5.8-30.63,48.35,0,0,105.3,143.88,383,143.88C684.09,800,766,676,776.39,657.33,787.87,636.75,778.44,613.3,752.71,604.25Z"/></g><g id="Forma_1706_copia" data-name="Forma 1706 copia"><path class="cls-2" d="M145.72,731c-21.61-11.69-48.61-24.8-65.89-41.37-13-11.78-25.46-23.84-29.07-35.28-3.37-11.43,2-22.25,29.55-32.89q-3.84-5.37-7.74-10.69c.31.2-14.78,3.22-27.55,8.82-13,5.67-23.76,13.94-19.45,25.69a127.26,127.26,0,0,0,19,26.34c10.33,11.41,24.57,23.26,40.78,34,32.57,21.17,73,39.9,98.63,46.57C184,752.15,167.62,742.27,145.72,731Z"/></g><g id="Forma_1708" data-name="Forma 1708"><path class="cls-3" d="M402,732.87S159.07,731.51,50.3,609.34c0,0,59,147.36,351.8,147.36,289.7,0,354.67-134.77,356.29-150.89C758.39,605.81,644.26,732.87,402,732.87Z"/></g><g id="Forma_1703_copia" data-name="Forma 1703 copia"><path class="cls-4" d="M735.58,563.19C665.5,684.5,454.94,703.48,401,706,347.09,703.48,136.4,684.5,65.4,563.19c0,0-45.48,14.43-28.72,35.59,96.39,121.71,283.64,142.78,364.48,142.78C511.32,744.5,683,713.22,764.57,598.78,780.13,576.94,735.58,563.19,735.58,563.19Z"/></g><g id="Forma_1706" data-name="Forma 1706"><path class="cls-5" d="M71.82,618.37C51.3,591,42.44,590,73.22,577l-4.58-6.55S38.31,580,40.7,591.38s65.93,73.71,108.11,88.13C148.81,679.51,92.59,646.06,71.82,618.37Z"/></g><g id="Forma_1693_copia_7" data-name="Forma 1693 copia 7"><path class="cls-6" d="M780.58,393c-34-339.4-321.05-361-321.05-361C459,8.69,414.15,8.1,398.22,8.63c-15.93-.53-60.81.06-61.12,23.4,0,0-286.93,21.55-318.39,361-12.77,137.9,85,331.6,382.39,331.6C682.78,724.58,798.51,572.07,780.58,393ZM397.21,669.58c-105.11,0-354-66.77-338.8-252.49,9.75-118.72,160.44-220.35,337.44-220.35,202.65,0,328.59,105.25,338.7,220.35C752,616,493.79,669.58,397.21,669.58Z"/></g><g id="Forma_1693_copia_10" data-name="Forma 1693 copia 10"><path class="cls-1" d="M780.58,393c-28-280.12-225.2-341.22-294-356.28C567.35,62.25,720.53,137,742.77,382.08c16.16,178-100.58,329.7-381.51,329.7-53.08,0-99.91-6.26-140.88-17.33C270.13,713.36,330,724.58,401.1,724.58,682.78,724.58,798.51,572.07,780.58,393Z"/></g><g id="Forma_1695_copia_3" data-name="Forma 1695 copia 3"><path class="cls-2" d="M398.22,8.63c-15.93-.53-60.81.06-61.12,23.4,0,0-286.93,21.55-318.39,361-7.88,85.1,26.89,202.11,153.1,268.83C63.84,593,33.37,485.09,40.33,405,70,63.61,357.61,42,357.61,42c.18-23.48,45.18-24.07,61.16-23.54,7.93-.26,23-.25,36.25,2.69C443.2,8.51,411.16,8.2,398.22,8.63Zm80.47,26.43a16.22,16.22,0,0,1,1.69,6.9s45,4.34,100.6,28.6A394.56,394.56,0,0,0,478.69,35.06Z"/></g><g id="Forma_1709_copia_Trazado_de_recorte" data-name="Forma 1709 copia Trazado de recorte"><path class="cls-7" d="M315.48,35.66c40.55,57.18,46.9,137.73,45.18,160.51a208.55,208.55,0,0,1,21.4-.76C378.84,105.9,358.19,64.18,336.73,32A181.47,181.47,0,0,0,315.48,35.66ZM459.8,32.31c-29.21,37.17-43.27,57.69-44,163.42a208.55,208.55,0,0,1,21.4.76c6.75-54.49-6.33-92.17,44.51-160.67C467.94,32.82,459.27,32.2,459.8,32.31Z"/></g><g id="Forma_1693_copia_3" data-name="Forma 1693 copia 3"><path class="cls-4" d="M772.79,425.19c-4.45-45.74-25.46-89.18-59.31-125.95,29.87,35,48.37,75.54,52.44,118.09C786.84,635.68,503.57,695.79,396,695.79c-84.29,0-260.32-40.12-336.35-147.27C132.45,662.32,315.76,704.8,402.55,704.8,510.39,704.8,794.13,644.42,772.79,425.19Z"/></g><g id="Elipse_1709" data-name="Elipse 1709"><path class="cls-5" d="M270.53,80.67c-8.28-9.39-27.2-11.31-47.28-1.08-24.06,12.26-38,36.83-27,51.51,11.31,15.12,42.32,10.69,63-7.9C276.62,107.64,278.83,90.09,270.53,80.67Z"/></g><g id="Forma_1693_copia_6" data-name="Forma 1693 copia 6"><path class="cls-1" d="M758.6,417.37C747,294.34,612.25,181.8,395.23,181.8c-189.4,0-350.84,108.52-362.08,235.57C15.47,617.11,283,689.66,396.62,689.66,501.43,689.66,778.68,631.15,758.6,417.37ZM397.82,664.06c-102.65,0-346.16-65.16-331.59-246.92,9.32-116.33,156.8-216,330.18-216,198.52,0,321.77,103.24,331.49,216C744.69,611.89,491.91,664.06,397.82,664.06Z"/></g><g id="Forma_1693_copia_8" data-name="Forma 1693 copia 8"><path class="cls-1" d="M765.92,417.33c-12-125.43-149.58-240.26-371.28-240.26-193.48,0-358.3,110.7-370,240.26C6.11,621.43,279.6,695.79,396,695.79,503.57,695.79,786.84,635.68,765.92,417.33ZM397.21,669.58c-105.11,0-354-66.77-338.8-252.49,9.75-118.72,160.44-220.35,337.44-220.35,202.65,0,328.59,105.25,338.7,220.35C752,616,493.79,669.58,397.21,669.58Z"/></g><g id="Forma_1693_copia_4" data-name="Forma 1693 copia 4"><path class="cls-5" d="M394.64,177.07c-193.48,0-358.3,110.7-370,240.26C19.05,478.55,39.88,529,76.41,569.39,45,530.52,27.74,483.13,32.73,426.63,44.24,296.48,209.18,185.28,403.1,185.28c127.47,0,227.78,37.74,292.74,95.21C631.67,218.44,528,177.07,394.64,177.07Z"/></g><g id="Forma_1693_copia_2_Trazado_de_recorte" data-name="Forma 1693 copia 2 Trazado de recorte"><path class="cls-7" d="M734.55,417.09c-10.11-115.1-136-220.35-338.7-220.35-177,0-327.69,101.63-337.44,220.35C43.16,602.81,292.1,669.58,397.21,669.58,493.79,669.58,752,616,734.55,417.09Z"/></g><g id="Elipse_1698_Trazado_de_recorte" data-name="Elipse 1698 Trazado de recorte"><path class="cls-7" d="M104.75,393.32C87.11,424.4,98.22,514.9,124.18,544.06c44-199.64,307.68-279.43,352-280.25C419.06,233.22,218.33,193.19,104.75,393.32Z"/></g><g id="Elipse_1698_copia_2_Trazado_de_recorte" data-name="Elipse 1698 copia 2 Trazado de recorte"><path class="cls-7" d="M493.71,233.4c76.46,33.24,127.55,92.17,128.45,161.39,1.47,112.78-131.93,208.45-295.55,208.45a403.61,403.61,0,0,1-53.2-3.48c42,18.34,92.1,29,146.6,29,163.62,0,297-95.67,295.56-208.45C714.33,325.59,619.22,250.17,493.71,233.4Z"/></g><g id="Forma_1695" data-name="Forma 1695"><path class="cls-8" d="M102.62,396.51s110.29-128.59,263.21-158C365.83,238.54,144,237.07,102.62,396.51Zm417.18-158s145.12,61.75,178.41,116C698.21,354.59,641.49,254,519.8,238.54Z"/></g></svg>